<svg xmlns="http://www.w3.org/2000/svg" width="24" height="24" viewBox="0 0 24 24">
    <g fill="none" fill-rule="evenodd">
        <path d="M0 0h24v24H0z"/>
        <path fill="#666" d="M20.996 9.009H3.006V5c0-.477.473-1 .997-1h2.999v3h.997V4H16v3h1.002V4h3c.497 0 .994.482.994 1v4.009zM20.998 19c0 .522-.505 1.007-.996 1.007h-16c-.503 0-.995-.455-.995-1.007v-8.998h17.99V19zM2 19.002C2 20.106 2.895 21 3.997 21h16.007A1.998 1.998 0 0 0 22 19.002V5c0-1.108-.872-2-1.996-2l-3 .008V1h-1.003v2H8.005V1L7 1.002V3H3.997C2.882 3 2 3.9 2 5v14.002z"/>
    </g>
</svg>
